<?xml version="1.0" encoding="UTF-8"?> <svg xmlns="http://www.w3.org/2000/svg" width="153" height="45" viewBox="0 0 153 45" fill="none"><path fill-rule="evenodd" clip-rule="evenodd" d="M24.0782 23.1914C25.0658 22.6853 29.8078 24.2363 31.0565 23.42C31.7095 22.9955 32.1992 21.5343 31.8809 20.6282C31.5299 19.6486 30.5097 19.518 29.3834 19.2241C25.2372 18.122 21.2053 16.922 17.1081 15.8363C14.6351 15.1833 14.5943 17.1506 13.8761 20.2527C13.3864 22.3914 14.6351 22.5629 17.3285 24.4976C17.8753 24.8894 19.475 25.6649 18.6507 26.5302C18.1773 27.02 15.8512 26.7914 15.0105 26.7914C12.3988 26.7914 9.79519 26.8159 7.18343 26.8159C-1.43537 26.8159 -0.733457 26.0731 1.3233 34.0159C1.64977 35.2894 1.82933 36.0894 3.2658 36.0486C4.1391 36.0241 5.73064 35.6322 6.66108 35.4771C12.7824 34.4241 21.2298 33.1424 26.7798 31.9506C28.0857 31.6731 28.1509 31.0527 28.4284 29.7057C28.6325 28.7098 29.1385 27.4363 28.4774 26.6118C27.751 25.6976 24.3394 23.9261 24.0782 23.2078V23.1914ZM11.4031 0.562858C12.4559 0.228164 13.9169 1.41184 14.7575 1.9098L30.3546 11.1588C31.8482 12.0486 32.1012 12.2608 31.6278 14.3669C31.3095 15.7792 31.2116 17.4037 29.4813 17.2078L14.6677 12.1057C13.3945 11.6486 12.2355 11.2486 10.9786 10.8159C7.91799 9.74653 8.64438 9.58327 9.80335 3.96694C10.1053 2.50571 10.089 0.979184 11.4112 0.562858H11.4031ZM27.2532 35.2404C26.5431 38.8404 26.8532 37.9669 23.6457 39.2159L9.90129 44.4404C8.62806 44.7914 8.6199 43.3955 8.37505 42.318C7.4038 38.0812 6.93858 38.4976 9.89313 37.7955L25.1882 34.1139C26.5921 33.771 27.6204 33.3384 27.2532 35.2241V35.2404Z" fill="#E6564B"></path><path fill-rule="evenodd" clip-rule="evenodd" d="M143.002 19.7303C143.712 19.265 145.116 19.5833 145.679 19.8935C148.291 21.3548 148.193 27.1099 143.753 26.7507C142.651 26.6609 142.447 26.2772 142.381 25.167C142.316 23.9425 142.047 20.3589 143.002 19.7384V19.7303ZM152.127 19.4691C150.6 15.8446 147.091 14.1793 142.977 14.2364C141.223 14.2609 138.962 14.1629 137.289 14.3588C136.595 15.2976 136.88 16.9221 136.88 18.367C136.88 20.3344 136.685 30.767 136.954 31.265C137.158 31.616 136.929 31.4364 137.37 31.6731C137.795 31.9017 138.905 31.8609 139.37 31.8609C144.112 31.8854 149.67 32.7833 152.184 26.9629C153.302 23.5344 153.237 22.7588 152.127 19.4609V19.4691ZM106.543 26.9058C101.883 26.9058 101.956 19.4037 106.543 19.4772C111.285 19.5589 111.032 26.914 106.543 26.9058ZM115.505 24.5466C115.986 22.1711 114.901 18.8895 113.734 17.5017C112.395 15.9017 110.885 14.7017 107.914 14.2691C102.152 13.4201 98.7815 17.0691 97.6388 21.665C97.3695 22.7344 97.5572 24.6691 97.7694 25.8119C98.0388 27.2568 99.4997 29.2976 100.389 29.9507C100.822 30.2691 101.279 30.5548 101.728 30.8731C104.568 32.865 110.167 32.2446 112.338 30.3507C114.093 28.8323 114.868 27.6486 115.497 24.5466H115.505ZM45.2323 21.1099C44.4406 21.1099 44.4406 21.7629 44.4406 21.9344C44.4406 22.1874 44.5059 23.265 44.5059 23.4854C44.5059 24.065 44.5059 24.1384 44.5385 24.2364C44.6038 24.3099 44.9221 24.6854 45.3629 24.6854C45.4935 24.6854 46.0974 24.6364 46.1872 24.6364C48.2195 24.6364 48.5378 25.8609 48.5378 26.1384C48.5378 27.216 47.6155 27.9915 46.2443 27.9915C45.5751 27.9915 44.8732 27.5915 44.3345 27.118C44.2039 26.9956 44.1141 26.865 43.9509 26.718C43.7632 26.5466 43.5673 26.416 43.2163 26.416C42.743 26.416 42.5797 26.5629 41.1188 28.016C40.4169 28.718 40.3516 28.865 40.3516 29.118C40.3516 29.8935 41.4616 30.6691 42.041 31.0201C43.4122 31.8691 44.3671 32.2201 46.3994 32.2201C47.7053 32.2201 47.8277 32.1956 48.8806 31.9915C50.7904 31.567 51.2312 31.2405 52.129 30.514C53.5573 29.2895 54.1612 28.6364 54.1612 26.6854C54.1612 25.6813 54.1612 24.9548 53.1737 23.8282C53.0431 23.7303 52.7901 23.4282 52.284 23.1017C52.0963 22.9548 51.8678 22.8242 51.7127 22.6772C51.6148 22.5548 51.5821 22.4242 51.5821 22.3262C51.5821 22.0976 51.6474 22.0242 52.0881 21.6486C52.6268 21.2242 53.4838 20.4976 53.4838 18.6446C53.4838 18.2446 53.4838 17.216 52.3085 15.8119C51.5413 14.8895 50.3987 14.5874 49.7947 14.4323C49.0275 14.2282 48.3909 14.0813 47.4441 14.0813C46.5871 14.0813 45.3139 14.2854 44.8324 14.4078C44.2284 14.5793 43.5591 14.8813 42.9878 15.2813C42.6042 15.5589 41.9676 15.9833 41.5595 16.2854C41.1433 16.5874 40.7352 16.9384 40.7352 17.314C40.7352 17.4119 40.7678 17.518 40.8331 17.616C40.9637 17.7629 41.1514 17.9425 41.3065 18.0895C41.4371 18.2119 41.5269 18.3425 41.6574 18.465C41.788 18.6119 42.4246 19.216 42.5471 19.3384C42.8327 19.665 43.0531 19.8854 43.4693 19.8854C43.755 19.8854 43.9754 19.7629 44.1713 19.5833C44.2692 19.4609 44.359 19.3548 44.4569 19.2323C44.5875 19.1099 45.3465 18.3589 46.5218 18.3589C47.7624 18.3589 48.1134 19.0854 48.1134 19.5589C48.1134 19.8854 47.893 20.6364 47.0605 20.9384C46.6116 21.0854 45.9505 21.0854 45.7873 21.0854H45.216L45.2323 21.1099ZM56.6342 19.4609C56.6342 20.4895 56.6342 21.1099 57.3361 22.1384C57.8259 22.865 58.2829 23.2405 59.0501 23.8201C59.295 23.967 60.2417 24.7752 60.4213 24.9221C62.3148 26.3997 62.5597 26.5711 62.5597 27.1262C62.5597 27.9017 61.6129 28.0568 60.7559 28.0568C60.1438 28.0568 59.5643 27.9588 59.2868 27.8037C59.1072 27.7058 58.9195 27.5507 58.74 27.4282C58.3727 27.1752 58.0707 27.1262 57.5484 27.1262C56.4465 27.1262 56.4465 27.9507 56.4465 28.2527C56.4465 28.4242 56.5037 29.2323 56.5037 29.3793C56.5037 29.6323 56.4139 30.7344 56.4139 30.9548C56.4139 31.2078 56.4139 31.4282 56.9362 31.7303C57.581 32.1058 59.5643 32.3099 60.8783 32.3099C61.8251 32.3099 63.4411 32.2119 64.2655 32.0323C64.9347 31.8854 66.5263 31.4037 67.5383 30.1548C68.33 29.1752 68.3627 27.9997 68.3627 26.8486C68.3627 25.2731 67.9383 24.2446 65.8897 22.6201C65.7101 22.4731 65.5224 22.3425 65.3102 22.1956C65.0082 21.967 64.5185 21.567 64.1838 21.3221C62.8698 20.3425 62.3801 19.9915 62.3801 19.3221C62.3801 18.4486 63.3595 18.4242 63.7268 18.4242C63.9716 18.4242 64.3389 18.4242 64.796 18.5221C65.2204 18.6201 65.6203 18.7507 66.0202 18.7997H66.2324C67.269 18.7997 67.3914 18.1221 67.3914 17.8446C67.3914 17.6976 67.3588 17.0935 67.3588 16.9711C67.3588 16.6935 67.4159 15.265 67.4159 15.216C67.4159 14.1384 65.7019 14.1384 63.1718 14.1384C62.1026 14.1384 60.8212 14.2119 59.4419 14.718C58.4053 15.118 57.6055 15.8691 57.1484 16.7425C56.8464 17.3221 56.6261 18.0976 56.6261 19.4691L56.6342 19.4609ZM79.5198 14.3507C79.332 14.3507 78.4669 14.3997 78.3118 14.3997C77.8956 14.3997 76.0184 14.3507 75.6429 14.3507H73.9861C73.8555 14.3507 73.4474 14.3262 73.0638 14.3017C72.6476 14.3017 72.2721 14.2772 72.1089 14.2772C70.4847 14.2772 70.4847 14.9793 70.4847 16.2037C70.4847 16.5058 70.5174 17.8282 70.5174 18.1058C70.5174 18.9793 70.4521 19.8854 70.4521 20.7588C70.4521 21.1344 70.5174 22.8405 70.5174 23.1588C70.5174 23.5099 70.4847 25.0037 70.4847 25.3058C70.4847 25.4772 70.5174 26.2772 70.5174 26.4486C70.5174 26.6201 70.4194 27.4446 70.4194 27.616C70.4194 27.8446 70.4521 28.9384 70.4521 29.167C70.4521 29.5915 70.4521 30.2201 70.3868 30.7425C70.3868 30.8405 70.3541 30.9466 70.3541 31.0446C70.3541 31.567 70.8928 32.0242 71.66 32.0242C71.8477 32.0242 72.6802 31.9997 72.8679 31.9997C73.1536 31.9997 74.5574 31.9752 74.8431 31.9752C74.9981 31.9752 75.7654 31.9997 75.9286 31.9997C76.1163 31.9997 76.9162 31.9752 77.0712 31.9752C77.7405 31.9752 78.4098 32.0242 79.079 32.0242C79.2667 32.0242 80.0013 31.9997 80.1645 31.9997C80.3278 31.9997 81.1195 32.0486 81.2745 32.0486C81.6581 32.0486 82.4172 31.8772 82.4172 31.0446C82.4172 30.8731 82.3845 30.114 82.3845 29.967C82.3845 29.7956 82.3845 29.518 82.4172 29.2405C82.4498 29.0935 82.4498 28.9384 82.4498 28.7915C82.4498 28.0895 81.6826 27.8935 81.2745 27.8935C81.0542 27.8935 80.8583 27.918 80.6379 27.9425C80.4176 27.967 80.1645 27.967 79.9034 27.967C79.683 27.967 79.4545 27.967 79.2341 27.9425C78.9484 27.918 78.6301 27.8691 78.3118 27.8446C77.8956 27.8446 77.3895 27.8446 77.0386 27.7711C76.2469 27.5997 76.2469 27.1507 76.2469 26.6527C76.2469 25.9588 76.2469 25.5833 76.402 25.3629C76.7203 24.914 77.3895 24.8895 77.8956 24.8895C78.2792 24.8895 80.1237 24.9874 80.4747 24.9874C80.9481 24.9874 81.4296 24.9874 81.7479 24.416C81.8132 24.318 81.8459 24.1874 81.8459 23.967C81.8459 23.7956 81.7806 23.0691 81.7806 22.914C81.7806 22.7425 81.8459 22.016 81.8459 21.8609C81.8459 21.1589 81.5602 20.8568 80.6053 20.8568C80.4502 20.8568 79.7156 20.8813 79.5851 20.8813C79.3647 20.8813 78.4751 20.8323 78.2792 20.8323C78.1241 20.8323 77.4548 20.8813 77.3242 20.8813C76.2143 20.8813 76.2143 19.9017 76.2143 19.6568C76.2143 18.9548 76.2143 18.8813 76.3448 18.7262C76.5326 18.4976 76.8835 18.3017 78.0915 18.3017C78.3118 18.3017 79.2341 18.3752 79.43 18.3752C79.5851 18.3752 80.287 18.3262 80.4175 18.3262C80.5155 18.3262 80.8664 18.3507 80.9562 18.3262C82.0417 18.2527 82.0989 17.6731 82.0989 17.3221C82.0989 17.1752 82.0662 16.5711 82.0662 16.4731C82.0662 16.2446 82.1642 15.2976 82.1642 15.0935C82.1642 14.6201 81.7806 14.318 81.2092 14.318C81.0542 14.318 80.3523 14.3425 80.189 14.3425H79.5198V14.3507ZM83.7884 22.767C83.7884 23.0446 83.7883 23.314 83.821 23.5915C83.8536 23.9915 83.8863 24.416 83.9516 24.8405C84.0822 26.6691 84.1148 26.9221 85.2085 28.718C85.5023 29.1425 85.5758 29.216 86.2042 29.8201C86.8653 30.4486 87.4285 30.9711 88.5222 31.4691C89.0527 31.6976 89.1506 31.7221 90.0076 31.8935C90.3014 31.9425 90.6034 32.0405 90.8972 32.0976C91.2645 32.1466 91.4277 32.1466 92.8805 32.1711C93.2805 32.1956 93.6396 32.2201 94.0395 32.2201C94.8638 32.2201 95.329 31.8691 95.329 31.167C95.329 31.0201 95.2964 30.865 95.2964 30.718C95.2638 30.2935 95.2638 29.8935 95.2638 29.4691C95.2638 29.265 95.329 28.416 95.329 28.2446C95.329 27.8935 95.3291 27.6405 94.8638 27.4201C94.668 27.3221 94.5374 27.3221 94.4639 27.3221C94.3007 27.3221 93.7049 27.4201 93.5743 27.4201C92.9785 27.4201 91.6236 26.9221 91.0605 26.3915C90.0321 25.4691 89.9994 23.8609 89.9994 23.4364C89.9994 23.0119 90.0974 21.9833 90.228 21.3548C90.3912 20.7507 90.7258 20.0813 91.3543 19.6731C91.6889 19.4691 92.905 19.1507 93.1744 19.1507C93.3702 19.1507 93.5743 19.1997 93.8028 19.2242C93.9334 19.2486 94.0966 19.2731 94.268 19.2731C94.7985 19.2731 95.3617 18.9956 95.3617 18.4242C95.3617 18.0976 95.329 16.718 95.329 16.4486C95.329 16.1221 95.329 15.7956 95.3617 15.4691C95.3617 15.3466 95.3943 15.1915 95.3943 15.0691C95.3943 14.8976 95.3944 14.4895 94.8638 14.2691C94.6027 14.1466 93.6069 14.1466 93.2805 14.1466C91.9909 14.1466 90.0402 14.3997 89.118 14.7752C88.9874 14.8242 87.1347 15.7793 86.7021 16.0242C85.3472 16.8976 84.6535 18.2037 84.2536 19.6078C84.0577 20.3833 83.7884 21.4119 83.7884 22.767ZM117.513 27.7466C117.545 27.8446 117.586 28.3262 117.586 28.4242C117.586 28.5466 117.341 30.7997 117.341 31.2568C117.341 31.4282 117.341 32.0568 118.28 32.0568C118.451 32.0568 118.59 32.0568 118.729 32.0323C119.145 32.0078 119.561 31.9833 119.986 31.9833C120.41 31.9833 122.214 32.0323 122.565 32.0323C123.12 32.0323 123.609 31.8609 123.609 31.3303C123.609 31.0037 123.438 29.5017 123.438 29.1997C123.438 28.4731 123.544 27.7466 123.544 27.0201C123.544 26.4405 123.405 25.265 123.373 25.0935C123.34 24.865 123.267 24.5711 123.267 24.416C123.267 24.318 123.34 24.1874 123.405 24.1874C123.544 24.1874 123.683 24.4895 124.099 25.3629C124.271 25.714 124.409 26.065 124.622 26.416C124.76 26.6691 124.972 26.9384 125.144 27.1915C125.389 27.5425 125.593 27.918 125.772 28.2691C125.878 28.5221 125.985 28.767 126.123 29.0446C126.336 29.4201 126.646 29.8446 126.923 30.2446C127.095 30.5466 127.307 30.8486 127.413 31.1425C127.552 31.4691 127.796 31.967 128.384 31.967C128.735 31.967 130.441 31.918 130.784 31.918C131.061 31.918 132.245 31.967 132.522 31.967C133.118 31.967 133.183 31.967 133.355 31.8935C133.803 31.7221 133.803 31.4446 133.803 31.3711C133.803 31.2486 133.697 30.6935 133.697 30.5711C133.665 30.1466 133.624 29.7221 133.624 29.2976C133.624 28.8486 133.795 26.816 133.795 26.416C133.795 25.9425 133.657 23.8119 133.657 23.3874C133.657 23.0119 133.689 22.6364 133.689 22.2609C133.722 21.4364 133.763 20.6119 133.763 20.0813C133.763 19.6078 133.657 17.5507 133.657 17.1507C133.657 16.9221 133.73 15.6242 133.795 15.3711C133.795 15.2486 133.828 15.1425 133.828 15.0446C133.828 14.6691 133.477 14.465 133.338 14.416C133.232 14.367 133.093 14.367 132.889 14.367C132.718 14.367 131.951 14.3915 131.771 14.3915C131.388 14.3915 130.033 14.3915 129.714 14.367C129.502 14.367 129.298 14.3425 129.119 14.3425C128.286 14.3425 127.903 14.7425 127.829 14.8405C127.69 15.0446 127.69 15.7629 127.69 15.9915C127.69 16.465 127.862 18.4976 127.862 18.9221C127.862 19.0935 127.788 19.8527 127.788 19.9997C127.788 20.0486 127.821 20.3017 127.862 20.4486C127.862 20.6201 127.894 20.7997 127.894 20.9711C127.894 21.1997 127.894 21.9507 127.723 21.9507C127.658 21.9507 127.511 21.8527 127.413 21.5752C127.201 21.1507 126.784 20.1711 126.474 19.6486C126.368 19.5017 126.229 19.3466 126.164 19.1997C126.025 18.9466 125.919 18.7262 125.781 18.4731C125.674 18.3017 125.536 18.1221 125.397 17.9507C125.364 17.9017 124.736 16.8976 124.736 16.8486C124.662 16.7507 124.63 16.6201 124.564 16.5221C124.254 15.8691 123.52 14.8405 123.381 14.6935C123.307 14.5956 123.071 14.3425 122.508 14.3425C122.336 14.3425 120.802 14.416 120.492 14.416C120.353 14.416 119.276 14.416 119.137 14.3915C118.892 14.3915 118.688 14.3425 118.443 14.3425C117.643 14.3425 117.472 14.816 117.472 15.0446C117.472 15.4446 117.578 17.1997 117.578 17.5507C117.578 17.7221 117.578 18.1548 117.545 18.6772C117.513 19.1752 117.513 19.6813 117.513 20.1793C117.513 20.4078 117.513 21.3058 117.545 21.7548C117.545 21.8772 117.619 22.6772 117.619 22.7344C117.619 23.0854 117.586 23.4364 117.545 23.7874C117.513 24.367 117.472 25.0364 117.472 25.6405C117.472 25.8446 117.505 26.767 117.505 26.9711V27.7466H117.513Z" fill="#E6564B"></path></svg> 